<svg width="64" height="64" viewBox="0 0 64 64" fill="none" xmlns="http://www.w3.org/2000/svg">
<circle cx="32" cy="32" r="32" fill="#FFEB34"/>
<path d="M34.1422 52.6373C30.6848 52.6373 27.5934 51.874 24.8682 50.3473C22.1429 48.8206 19.9871 46.6511 18.4414 43.8388C16.8958 41.0265 16.1229 37.7321 16.1229 33.9154C16.1229 30.0986 16.8958 26.8042 18.4414 23.9919C19.9871 21.1796 22.1429 19.0101 24.8682 17.4834C27.5934 15.9567 30.7255 15.1934 34.2236 15.1934C37.7217 15.1934 40.813 15.9567 43.5383 17.4834C46.2229 19.0101 48.338 21.1796 49.8837 23.9919C51.4293 26.8042 52.2022 30.0986 52.2022 33.9154C52.2022 37.7321 51.4293 41.0265 49.8837 43.8388C48.338 46.6511 46.1822 48.8206 43.4976 50.3473C40.7317 51.874 37.6403 52.6373 34.1422 52.6373ZM34.1422 45.3655C35.9726 45.3655 37.681 44.9637 39.2673 44.12C40.813 43.3165 42.0739 42.0309 43.0095 40.3435C43.945 38.6561 44.4331 36.4866 44.4331 33.8752C44.4331 31.2236 43.945 29.0541 43.0095 27.3667C42.0739 25.6793 40.813 24.4338 39.2673 23.6303C37.7217 22.8268 36.054 22.3849 34.1829 22.3849C32.3525 22.3849 30.6441 22.7866 29.0578 23.6303C27.5121 24.4338 26.2511 25.6793 25.3156 27.3667C24.3801 29.0541 23.892 31.2236 23.892 33.8752C23.892 37.8124 24.9089 40.7051 26.902 42.5532C28.9357 44.4415 31.3356 45.3655 34.1422 45.3655Z" fill="#3E3E3E" stroke="#3E3E3E" stroke-width="0.402778" stroke-miterlimit="10"/>
<path d="M30.1551 50.3483C26.6977 50.3483 23.6064 49.5849 20.8811 48.0583C18.1559 46.5316 16 44.3621 14.4544 41.5498C12.9087 38.7374 12.1359 35.443 12.1359 31.6263C12.1359 27.8096 12.9087 24.5151 14.4544 21.7028C16 18.8905 18.1559 16.721 20.8811 15.1943C23.6064 13.6676 26.7384 12.9043 30.2365 12.9043C33.7346 12.9043 36.8259 13.6676 39.5512 15.1943C42.2358 16.721 44.3509 18.8905 45.8966 21.7028C47.4423 24.5151 48.2151 27.8096 48.2151 31.6263C48.2151 35.443 47.4423 38.7374 45.8966 41.5498C44.3509 44.3621 42.1951 46.5316 39.5105 48.0583C36.7446 49.5448 33.6532 50.3483 30.1551 50.3483ZM30.1551 43.0363C31.9855 43.0363 33.6939 42.6345 35.2803 41.7908C36.8259 40.9873 38.0869 39.7017 39.0224 38.0143C39.958 36.3269 40.4461 34.1574 40.4461 31.5459C40.4461 28.8943 39.958 26.7248 39.0224 25.0374C38.0869 23.35 36.8259 22.1046 35.2803 21.3011C33.7753 20.5377 32.0669 20.136 30.2365 20.136C28.4061 20.136 26.6977 20.5377 25.1114 21.3814C23.5657 22.1849 22.3048 23.4304 21.3692 25.1178C20.4337 26.8052 19.9456 28.9747 19.9456 31.6263C19.9456 35.5635 20.9625 38.4562 22.9556 40.3043C24.9893 42.1122 27.3892 43.0363 30.1551 43.0363Z" fill="#617AFF"/>
<path fill-rule="evenodd" clip-rule="evenodd" d="M30.2364 13.3075C26.7984 13.3075 23.7357 14.0572 21.0779 15.5462C18.4191 17.0356 16.3171 19.1503 14.8073 21.8973C13.2998 24.6401 12.5386 27.8654 12.5386 31.6267C12.5386 35.3881 13.2998 38.6133 14.8073 41.3562C16.3171 44.1032 18.4191 46.2178 21.0779 47.7073C23.7368 49.1968 26.7591 49.9459 30.1551 49.9459C33.5865 49.9459 36.6107 49.159 39.3154 47.7062C41.9331 46.2167 44.0344 44.1021 45.5436 41.3562C47.0511 38.6133 47.8123 35.3881 47.8123 31.6267C47.8123 27.8654 47.0511 24.6401 45.5436 21.8973C44.0325 19.148 41.9699 17.0339 39.3533 15.5456C36.695 14.0567 33.6732 13.3075 30.2364 13.3075ZM20.6842 14.8434C23.4769 13.2789 26.6783 12.502 30.2364 12.502C33.7955 12.502 36.956 13.2793 39.748 14.8434L39.7503 14.8446C42.5022 16.4096 44.6694 18.6344 46.2495 21.5093C47.8334 24.391 48.6178 27.7546 48.6178 31.6267C48.6178 35.4988 47.8334 38.8624 46.2495 41.7442C44.6682 44.6215 42.4592 46.8451 39.7096 48.4088L39.7012 48.4136L39.7011 48.4135C36.8752 49.9323 33.7181 50.7515 30.1551 50.7515C26.6363 50.7515 23.4759 49.974 20.6842 48.4101C17.8925 46.8462 15.6829 44.6218 14.1013 41.7442C12.5175 38.8624 11.733 35.4988 11.733 31.6267C11.733 27.7546 12.5175 24.391 14.1013 21.5093C15.6829 18.6316 17.8925 16.4073 20.6842 14.8434ZM24.9239 21.0254C26.5717 20.1493 28.3451 19.7336 30.2364 19.7336C32.1264 19.7336 33.8977 20.1487 35.4624 20.9423L35.466 20.9441L35.466 20.9441C37.0874 21.787 38.4038 23.0916 39.3746 24.8426C40.3524 26.6061 40.8488 28.848 40.8488 31.5464C40.8488 34.2052 40.3521 36.4469 39.3746 38.21C38.4065 39.9562 37.0921 41.3028 35.4677 42.1477C33.8198 43.0238 32.0464 43.4395 30.1551 43.4395C27.2902 43.4395 24.7952 42.479 22.6879 40.6058L22.6816 40.6001L22.6817 40.6001C20.5763 38.6479 19.5427 35.6273 19.5427 31.6267C19.5427 28.9283 20.0392 26.6864 21.0169 24.9229C21.9874 23.1726 23.3032 21.8683 24.9239 21.0254ZM30.2364 20.5392C28.4676 20.5392 26.8248 20.9268 25.3005 21.7375L25.2971 21.7392L25.2971 21.7392C23.8271 22.5034 22.6217 23.6897 21.7214 25.3135C20.8281 26.9248 20.3483 29.0219 20.3483 31.6267C20.3483 35.4986 21.3474 38.2624 23.2263 40.0066C25.1859 41.7473 27.4896 42.6339 30.1551 42.6339C31.924 42.6339 33.5668 42.2463 35.0911 41.4356L35.0944 41.4339L35.0944 41.4339C36.5606 40.6717 37.7675 39.4474 38.6701 37.8194C39.5637 36.2077 40.0432 34.1104 40.0432 31.5464C40.0432 28.9416 39.5634 26.8444 38.6701 25.2332C37.7702 23.61 36.5654 22.424 35.0962 21.6598C33.6514 20.9273 32.0065 20.5392 30.2364 20.5392Z" fill="#3E3E3E"/>
<path d="M16 26.4023L23.0369 18.2868L32.2296 17.2422L39.7139 23.9114L43.456 30.4601L42.2358 39.7407L37.3547 44.7225L28.4467 46.1689L19.8642 40.0219L16 26.4023Z" fill="#617AFF"/>
<path d="M29.7485 36.2864C32.9212 36.2864 35.4431 33.7553 35.4431 30.6617C35.4431 27.5682 32.8806 25.0371 29.7485 25.0371C26.6165 25.0371 24.054 27.5682 24.054 30.6617C24.054 33.7553 26.5758 36.2864 29.7485 36.2864Z" fill="#3E3E3E" stroke="#3E3E3E" stroke-width="0.316422" stroke-miterlimit="10"/>
<path d="M41.1807 22.2268L46.5499 16.9236C47.6074 15.879 47.404 13.9907 46.1024 12.7051C44.8008 11.4195 42.8891 11.2186 41.8315 12.2632L36.4623 17.5664C35.4047 18.611 35.6081 20.4993 36.9097 21.7849C38.2114 23.0705 40.1231 23.2714 41.1807 22.2268Z" fill="white"/>
<path fill-rule="evenodd" clip-rule="evenodd" d="M41.5484 11.9763C42.8155 10.7248 44.9854 11.0354 46.3854 12.4183C47.7861 13.8017 48.1047 15.9537 46.8329 17.2099L41.4637 22.5131C40.1966 23.7646 38.0267 23.454 36.6267 22.0712C35.226 20.6878 34.9074 18.5358 36.1792 17.2796L41.5484 11.9763ZM45.8193 12.9914C44.6162 11.803 42.9625 11.7118 42.1145 12.5495L36.7453 17.8527C35.902 18.6857 35.9901 20.3102 37.1927 21.498C38.3959 22.6865 40.0495 22.7776 40.8976 21.94L46.2668 16.6368C47.1101 15.8038 47.022 14.1792 45.8193 12.9914Z" fill="#3E3E3E"/>
</svg>
