<svg width="16" height="16" viewBox="0 0 16 16" fill="none" xmlns="http://www.w3.org/2000/svg">
    <path
        d="M13.0068 1.7325L8.17815 1.01342C8.06 0.995528 7.94 0.995528 7.82185 1.01342L2.99323 1.7325C2.42185 1.81836 2 2.29417 2 2.85495V10.2658C2 10.6182 2.16892 10.9509 2.45692 11.1656L7.28554 14.7646C7.49038 14.9172 7.74157 15 8 15C8.25843 15 8.50962 14.9172 8.71446 14.7646L13.5431 11.1656C13.8311 10.9509 14 10.6182 14 10.2658V2.85495C14 2.29417 13.5782 1.81836 13.0068 1.7325Z"
        fill="#2F80ED" />
    <path fill-rule="evenodd" clip-rule="evenodd"
        d="M11.8536 5.14645C12.0488 5.34171 12.0488 5.65829 11.8536 5.85355L7.85355 9.85355C7.65829 10.0488 7.34171 10.0488 7.14645 9.85355L4.64645 7.35355C4.45118 7.15829 4.45118 6.84171 4.64645 6.64645C4.84171 6.45118 5.15829 6.45118 5.35355 6.64645L7.5 8.79289L11.1464 5.14645C11.3417 4.95118 11.6583 4.95118 11.8536 5.14645Z"
        fill="white" />
</svg>